<?xml version="1.0" encoding="UTF-8" standalone="no"?>
<!-- Created with Inkscape (http://www.inkscape.org/) -->
<svg
   xmlns:dc="http://purl.org/dc/elements/1.1/"
   xmlns:cc="http://creativecommons.org/ns#"
   xmlns:rdf="http://www.w3.org/1999/02/22-rdf-syntax-ns#"
   xmlns:svg="http://www.w3.org/2000/svg"
   xmlns="http://www.w3.org/2000/svg"
   xmlns:sodipodi="http://sodipodi.sourceforge.net/DTD/sodipodi-0.dtd"
   xmlns:inkscape="http://www.inkscape.org/namespaces/inkscape"
   width="744.09448819"
   height="1052.3622047"
   id="svg2"
   sodipodi:version="0.32"
   inkscape:version="0.46"
   sodipodi:docname="mugen.svg"
   inkscape:output_extension="org.inkscape.output.svg.inkscape">
  <defs
     id="defs4">
    <inkscape:perspective
       sodipodi:type="inkscape:persp3d"
       inkscape:vp_x="0 : 526.18109 : 1"
       inkscape:vp_y="0 : 1000 : 0"
       inkscape:vp_z="744.09448 : 526.18109 : 1"
       inkscape:persp3d-origin="372.04724 : 350.78739 : 1"
       id="perspective10" />
  </defs>
  <sodipodi:namedview
     id="base"
     pagecolor="#ffffff"
     bordercolor="#666666"
     borderopacity="1.0"
     gridtolerance="10000"
     guidetolerance="10"
     objecttolerance="10"
     inkscape:pageopacity="0.0"
     inkscape:pageshadow="2"
     inkscape:zoom="0.7"
     inkscape:cx="368.08661"
     inkscape:cy="488.16832"
     inkscape:document-units="px"
     inkscape:current-layer="layer1"
     showgrid="false"
     inkscape:window-width="1920"
     inkscape:window-height="1159"
     inkscape:window-x="-4"
     inkscape:window-y="-4" />
  <metadata
     id="metadata7">
    <rdf:RDF>
      <cc:Work
         rdf:about="">
        <dc:format>image/svg+xml</dc:format>
        <dc:type
           rdf:resource="http://purl.org/dc/dcmitype/StillImage" />
      </cc:Work>
    </rdf:RDF>
  </metadata>
  <g
     inkscape:label="Layer 1"
     inkscape:groupmode="layer"
     id="layer1">
    <g
       id="g3239"
       transform="translate(13.57442,-22.857143)">
      <path
         sodipodi:nodetypes="cccccccccccccccccccccccc"
         id="rect2387"
         d="M 125.6875,264.9375 C 93.97596,264.9375 68.28125,290.63222 68.28125,322.34375 L 68.28125,519.53125 C 68.28125,551.24279 93.975957,576.9375 125.6875,576.9375 L 250.6875,576.9375 L 375.71875,576.9375 L 500.71875,576.9375 L 625.75,576.9375 C 657.46154,576.9375 683.12497,551.24278 683.125,519.53125 L 683.125,322.34375 C 683.125,290.63222 657.46157,264.9375 625.75,264.9375 L 500.71875,264.9375 L 375.71875,264.9375 L 250.6875,264.9375 L 125.6875,264.9375 z M 375.71875,566.9375 L 250.6875,566.9375 L 125.6875,566.9375 C 99.342986,566.9375 78.28125,545.87577 78.28125,519.53125 L 78.28125,322.34375 C 78.28125,295.99925 99.34299,274.9375 125.6875,274.9375 L 250.6875,274.9375 L 375.71875,274.9375"
         style="fill:#000000;fill-opacity:1;stroke:none;stroke-width:10;stroke-miterlimit:4;stroke-opacity:1" />
      <g
         transform="translate(-1.1169434e-2,3.8757324e-3)"
         id="g3231">
        <path
           style="font-size:300px;font-style:normal;font-variant:normal;font-weight:normal;font-stretch:normal;text-align:start;line-height:125%;writing-mode:lr-tb;text-anchor:start;fill:#000000;fill-opacity:1;stroke:none;stroke-width:1px;stroke-linecap:butt;stroke-linejoin:miter;stroke-opacity:1;font-family:MS Mincho;-inkscape-font-specification:MS Mincho"
           d="M 290.75329,489.88591 C 288.40932,487.54221 289.19057,486.37033 293.09704,486.37029 C 326.69054,500.43282 343.48739,515.66718 343.48767,532.07341 C 343.48739,539.8859 340.75302,543.79215 335.28454,543.79216 C 331.37803,543.79215 328.64366,541.83903 327.08142,537.93279 C 321.61242,519.1828 309.50305,503.16719 290.75329,489.88591 L 290.75329,489.88591 z M 171.22204,297.69841 C 177.47194,303.16739 174.73756,305.51114 163.01892,304.72966 L 150.12829,323.47966 L 303.64392,323.47966 L 318.87829,308.24529 L 337.62829,322.30779 C 342.31552,326.21424 342.31552,328.94861 337.62829,330.51091 L 300.12829,330.51091 L 300.12829,391.44841 L 320.05017,391.44841 L 335.28454,376.21404 L 354.03454,390.27654 C 358.72175,394.18292 358.72175,396.9173 354.03454,398.47966 L 300.12829,398.47966 L 300.12829,458.24529 L 316.53454,458.24529 L 331.76892,443.01091 L 350.51892,457.07341 C 355.20613,460.97973 355.20613,463.7141 350.51892,465.27654 L 100.90954,465.27654 L 100.90954,458.24529 L 143.09704,458.24529 L 143.09704,398.47966 L 88.01892,398.47966 L 88.01892,391.44841 L 143.09704,391.44841 L 143.09704,335.19841 C 126.69074,356.29234 113.01887,371.91732 102.08142,382.07341 C 98.956393,384.41731 97.393894,383.63606 97.39392,379.72966 C 119.26887,351.60484 137.62823,320.35487 152.47204,285.97966 L 171.22204,297.69841 L 171.22204,297.69841 z M 188.80017,535.58904 C 188.0188,518.40155 182.94068,503.94844 173.56579,492.22966 C 172.78444,489.88595 173.95631,489.1047 177.08142,489.88591 C 196.61254,503.94844 206.37816,518.79217 206.37829,534.41716 C 206.37816,544.5734 203.25316,549.65152 197.00329,549.65154 C 191.53442,549.65152 188.80005,544.96402 188.80017,535.58904 L 188.80017,535.58904 z M 202.86267,398.47966 L 202.86267,458.24529 L 235.67517,458.24529 L 235.67517,398.47966 L 202.86267,398.47966 z M 187.62829,398.47966 L 158.33142,398.47966 L 158.33142,458.24529 L 187.62829,458.24529 L 187.62829,398.47966 z M 187.62829,330.51091 L 158.33142,330.51091 L 158.33142,391.44841 L 187.62829,391.44841 L 187.62829,330.51091 z M 235.67517,330.51091 L 202.86267,330.51091 L 202.86267,391.44841 L 235.67517,391.44841 L 235.67517,330.51091 z M 284.89392,330.51091 L 250.90954,330.51091 L 250.90954,391.44841 L 284.89392,391.44841 L 284.89392,330.51091 z M 284.89392,398.47966 L 250.90954,398.47966 L 250.90954,458.24529 L 284.89392,458.24529 L 284.89392,398.47966 z M 233.33142,487.54216 C 261.45623,502.38594 275.51871,517.6203 275.51892,533.24529 C 275.51871,541.83903 272.39372,546.1359 266.14392,546.13591 C 261.45623,546.1359 258.33123,541.83903 256.76892,533.24529 C 252.86248,516.83905 244.26874,502.77656 230.98767,491.05779 C 228.64376,487.93283 229.42501,486.76096 233.33142,487.54216 L 233.33142,487.54216 z M 127.86267,539.10466 C 120.83137,547.6984 113.4095,551.99527 105.59704,551.99529 C 100.12827,551.99527 97.393894,549.26089 97.39392,543.79216 C 97.393894,539.8859 100.12827,536.37028 105.59704,533.24529 C 122.00324,523.87029 132.15948,509.41718 136.06579,489.88591 C 139.19072,486.76096 140.75322,487.15158 140.75329,491.05779 C 140.75322,511.37031 136.45635,527.38592 127.86267,539.10466 L 127.86267,539.10466 z"
           id="text2383" />
        <path
           style="font-size:300px;font-style:normal;font-variant:normal;font-weight:normal;font-stretch:normal;text-align:end;line-height:125%;writing-mode:lr-tb;text-anchor:end;fill:#ffffff;fill-opacity:1;stroke:none;stroke-width:1px;stroke-linecap:butt;stroke-linejoin:miter;stroke-opacity:1;font-family:MS Mincho;-inkscape-font-specification:MS Mincho"
           d="M 595.44093,499.26091 C 581.37822,480.51096 569.65948,451.99537 560.28468,413.71404 L 528.64406,413.71404 L 528.64406,520.35466 L 595.44093,499.26091 L 595.44093,499.26091 z M 590.75343,472.30779 C 607.15945,498.08907 631.37817,517.6203 663.40968,530.90154 C 654.81565,534.02653 647.78441,538.71403 642.31593,544.96404 C 627.47193,535.58903 613.01882,521.91717 598.95656,503.94841 L 501.69093,543.79216 C 500.90955,557.07339 497.39393,559.41713 491.14406,550.82341 L 477.08156,534.41716 L 513.40968,523.87029 L 513.40968,297.69841 L 530.98781,308.24529 L 608.33156,308.24529 L 615.36281,298.87029 L 631.76906,310.58904 C 636.45629,314.4955 634.89379,317.22988 627.08156,318.79216 L 627.08156,417.22966 C 616.92506,426.60477 611.84694,426.99539 611.84718,418.40154 L 611.84718,413.71404 L 569.65968,413.71404 C 572.00323,426.99539 578.25323,444.96412 588.40968,467.62029 C 605.59695,451.21412 623.56568,432.85476 642.31593,412.54216 L 656.37843,426.60466 C 660.28439,431.29226 656.76877,432.85476 645.83156,431.29216 C 627.0813,446.136 608.72195,459.80786 590.75343,472.30779 L 590.75343,472.30779 z M 455.98781,480.51091 C 463.80022,480.51096 468.87834,477.38597 471.22218,471.13591 C 479.03457,446.91725 469.65958,418.40165 443.09718,385.58904 L 466.53468,318.79216 L 418.48781,318.79216 L 418.48781,548.47966 C 408.33152,557.85463 403.2534,558.24526 403.25343,549.65154 L 403.25343,302.38591 L 420.83156,311.76091 L 464.19093,311.76091 L 473.56593,302.38591 L 489.97218,314.10466 C 496.22206,317.22988 493.09706,320.35487 480.59718,323.47966 L 448.95656,385.58904 C 474.7377,410.58916 487.62832,433.24538 487.62843,453.55779 C 488.40957,471.5266 484.50332,484.41721 475.90968,492.22966 C 470.44083,496.9172 464.97209,499.26094 459.50343,499.26091 C 454.0346,499.26094 451.30023,497.30782 451.30031,493.40154 C 451.30023,490.27658 447.78461,487.54221 440.75343,485.19841 L 430.20656,482.85466 C 427.86275,481.29221 427.86275,480.12034 430.20656,479.33904 L 455.98781,480.51091 L 455.98781,480.51091 z M 528.64406,406.68279 L 611.84718,406.68279 L 611.84718,362.15154 L 528.64406,362.15154 L 528.64406,406.68279 z M 528.64406,355.12029 L 611.84718,355.12029 L 611.84718,315.27654 L 528.64406,315.27654 L 528.64406,355.12029 z"
           id="text3210" />
      </g>
    </g>
    <text
       xml:space="preserve"
       style="font-size:78.92694855px;font-style:normal;font-weight:normal;fill:#000000;fill-opacity:1;stroke:none;stroke-width:1px;stroke-linecap:butt;stroke-linejoin:miter;stroke-opacity:1;font-family:Bitstream Vera Sans"
       x="71.141815"
       y="664.03094"
       id="text3235"><tspan
         sodipodi:role="line"
         id="tspan3237"
         x="71.141815"
         y="664.03094">フォーメーション</tspan></text>
  </g>
</svg>
