<?xml version="1.0" encoding="UTF-8" standalone="no"?>
<!-- Created with Inkscape (http://www.inkscape.org/) -->
<svg
   xmlns:dc="http://purl.org/dc/elements/1.1/"
   xmlns:cc="http://creativecommons.org/ns#"
   xmlns:rdf="http://www.w3.org/1999/02/22-rdf-syntax-ns#"
   xmlns:svg="http://www.w3.org/2000/svg"
   xmlns="http://www.w3.org/2000/svg"
   xmlns:sodipodi="http://sodipodi.sourceforge.net/DTD/sodipodi-0.dtd"
   xmlns:inkscape="http://www.inkscape.org/namespaces/inkscape"
   id="svg2440"
   sodipodi:version="0.32"
   inkscape:version="0.46"
   width="640"
   height="480"
   version="1.0"
   sodipodi:docname="mugen3.svg"
   inkscape:output_extension="org.inkscape.output.svg.inkscape">
  <metadata
     id="metadata2445">
    <rdf:RDF>
      <cc:Work
         rdf:about="">
        <dc:format>image/svg+xml</dc:format>
        <dc:type
           rdf:resource="http://purl.org/dc/dcmitype/StillImage" />
      </cc:Work>
    </rdf:RDF>
  </metadata>
  <defs
     id="defs2443">
    <marker
       inkscape:stockid="Arrow1Lend"
       orient="auto"
       refY="0"
       refX="0"
       id="Arrow1Lend"
       style="overflow:visible">
      <path
         id="path3688"
         d="M 0,0 L 5,-5 L -12.5,0 L 5,5 L 0,0 z"
         style="fill-rule:evenodd;stroke:#000000;stroke-width:1pt;marker-start:none"
         transform="matrix(-0.8,0,0,-0.8,-10,0)" />
    </marker>
    <marker
       inkscape:stockid="DotL"
       orient="auto"
       refY="0"
       refX="0"
       id="DotL"
       style="overflow:visible">
      <path
         id="path3747"
         d="M -2.5,-1 C -2.5,1.76 -4.74,4 -7.5,4 C -10.26,4 -12.5,1.76 -12.5,-1 C -12.5,-3.76 -10.26,-6 -7.5,-6 C -4.74,-6 -2.5,-3.76 -2.5,-1 z"
         style="fill-rule:evenodd;stroke:#000000;stroke-width:1pt;marker-start:none;marker-end:none"
         transform="matrix(0.8,0,0,0.8,5.92,0.8)" />
    </marker>
    <inkscape:perspective
       sodipodi:type="inkscape:persp3d"
       inkscape:vp_x="737 : 476.18109 : 1"
       inkscape:vp_y="0 : 1000 : 0"
       inkscape:vp_z="1655.0945 : -383.81891 : 1"
       inkscape:persp3d-origin="1525.0472 : 44.78739 : 1"
       id="perspective2447" />
    <inkscape:perspective
       id="perspective3311"
       inkscape:persp3d-origin="372.04724 : 350.78739 : 1"
       inkscape:vp_z="744.09448 : 526.18109 : 1"
       inkscape:vp_y="0 : 1000 : 0"
       inkscape:vp_x="0 : 526.18109 : 1"
       sodipodi:type="inkscape:persp3d" />
  </defs>
  <sodipodi:namedview
     inkscape:window-height="1159"
     inkscape:window-width="1920"
     inkscape:pageshadow="2"
     inkscape:pageopacity="0.0"
     guidetolerance="10.0"
     gridtolerance="10.0"
     objecttolerance="10.0"
     borderopacity="1.0"
     bordercolor="#666666"
     pagecolor="#ffffff"
     id="base"
     showgrid="false"
     inkscape:zoom="2.0229167"
     inkscape:cx="273.02008"
     inkscape:cy="203.41916"
     inkscape:window-x="-4"
     inkscape:window-y="-4"
     inkscape:current-layer="svg2440" />
  <g
     id="g2471">
    <g
       id="g2464">
      <rect
         style="fill:#000000;fill-opacity:1;stroke:none;stroke-width:25;stroke-miterlimit:4;stroke-dasharray:none;stroke-dashoffset:0;stroke-opacity:1"
         id="rect8263"
         width="320"
         height="480"
         x="-320"
         y="0"
         transform="scale(-1,1)" />
      <rect
         transform="scale(-1,1)"
         y="0"
         x="-640"
         height="480"
         width="320"
         id="rect8261"
         style="fill:#ffffff;fill-opacity:1;stroke:none;stroke-width:25;stroke-miterlimit:4;stroke-dasharray:none;stroke-dashoffset:0;stroke-opacity:1" />
      <path
         sodipodi:type="arc"
         style="fill:#ffffff;fill-opacity:1;stroke:none;stroke-width:25;stroke-miterlimit:4;stroke-dasharray:none;stroke-dashoffset:0;stroke-opacity:1"
         id="path8246"
         sodipodi:cx="-152.02795"
         sodipodi:cy="103.38416"
         sodipodi:rx="63.63961"
         sodipodi:ry="68.589355"
         d="M -88.388344,103.38416 A 63.63961,68.589355 0 1 1 -215.66756,103.38416 A 63.63961,68.589355 0 1 1 -88.388344,103.38416 z"
         transform="matrix(2.9462783,0,0,2.7336602,767.91666,-42.617171)" />
      <path
         transform="matrix(2.5534412,0,0,2.3691722,708.19444,-4.934884)"
         d="M -88.388344,103.38416 A 63.63961,68.589355 0 1 1 -215.66756,103.38416 A 63.63961,68.589355 0 1 1 -88.388344,103.38416 z"
         sodipodi:ry="68.589355"
         sodipodi:rx="63.63961"
         sodipodi:cy="103.38416"
         sodipodi:cx="-152.02795"
         id="path8244"
         style="fill:#000000;fill-opacity:1;stroke:none;stroke-width:25;stroke-miterlimit:4;stroke-dasharray:none;stroke-dashoffset:0;stroke-opacity:1"
         sodipodi:type="arc" />
      <path
         sodipodi:type="arc"
         style="fill:#ffffff;fill-opacity:1;stroke:none;stroke-width:25;stroke-miterlimit:4;stroke-dasharray:none;stroke-dashoffset:0;stroke-opacity:1"
         id="path8240"
         sodipodi:cx="-152.02795"
         sodipodi:cy="103.38416"
         sodipodi:rx="63.63961"
         sodipodi:ry="68.589355"
         d="M -88.388344,103.38416 A 63.63961,68.589355 0 1 1 -215.66756,103.38416 A 63.63961,68.589355 0 1 1 -88.388344,103.38416 z"
         transform="matrix(2.1606041,0,0,2.0046842,648.47222,32.747403)" />
    </g>
    <g
       id="g2448">
      <g
         id="g2425">
        <path
           id="text2383"
           d="M 287.98043,252.05727 C 286.98824,251.06518 287.31894,250.56913 288.97254,250.56911 C 303.1926,256.52175 310.30268,262.97042 310.3028,269.91516 C 310.30268,273.22216 309.14522,274.87567 306.83043,274.87568 C 305.17681,274.87567 304.01935,274.04893 303.35806,272.39542 C 301.04304,264.45858 295.91717,257.67921 287.98043,252.05727 L 287.98043,252.05727 z M 237.38309,170.70467 C 240.02866,173.01968 238.8712,174.01178 233.91071,173.68098 L 228.45414,181.61782 L 293.43702,181.61782 L 299.88569,175.16914 L 307.82254,181.12177 C 309.80663,182.77536 309.80663,183.93281 307.82254,184.59413 L 291.94886,184.59413 L 291.94886,210.38886 L 300.38175,210.38886 L 306.83043,203.94018 L 314.76727,209.8928 C 316.75136,211.54637 316.75136,212.70383 314.76727,213.36518 L 291.94886,213.36518 L 291.94886,238.66385 L 298.89359,238.66385 L 305.34227,232.21517 L 313.27911,238.1678 C 315.26319,239.82134 315.26319,240.97878 313.27911,241.64016 L 207.61993,241.64016 L 207.61993,238.66385 L 225.47782,238.66385 L 225.47782,213.36518 L 202.16336,213.36518 L 202.16336,210.38886 L 225.47782,210.38886 L 225.47782,186.57834 C 218.53307,195.50736 212.74579,202.12138 208.11599,206.42044 C 206.79317,207.41261 206.13177,207.08191 206.13178,205.42833 C 215.39141,193.52315 223.16289,180.2951 229.44624,165.74414 L 237.38309,170.70467 L 237.38309,170.70467 z M 244.82387,271.40331 C 244.49312,264.12788 242.34356,258.00991 238.37519,253.04937 C 238.04445,252.05728 238.5405,251.72658 239.86335,252.05727 C 248.13084,258.00991 252.2646,264.29323 252.26466,270.90726 C 252.2646,275.20637 250.94179,277.35593 248.29623,277.35594 C 245.98127,277.35593 244.82382,275.37172 244.82387,271.40331 L 244.82387,271.40331 z M 250.7765,213.36518 L 250.7765,238.66385 L 264.66597,238.66385 L 264.66597,213.36518 L 250.7765,213.36518 z M 244.32782,213.36518 L 231.9265,213.36518 L 231.9265,238.66385 L 244.32782,238.66385 L 244.32782,213.36518 z M 244.32782,184.59413 L 231.9265,184.59413 L 231.9265,210.38886 L 244.32782,210.38886 L 244.32782,184.59413 z M 264.66597,184.59413 L 250.7765,184.59413 L 250.7765,210.38886 L 264.66597,210.38886 L 264.66597,184.59413 z M 285.50017,184.59413 L 271.11465,184.59413 L 271.11465,210.38886 L 285.50017,210.38886 L 285.50017,184.59413 z M 285.50017,213.36518 L 271.11465,213.36518 L 271.11465,238.66385 L 285.50017,238.66385 L 285.50017,213.36518 z M 263.67386,251.06516 C 275.57904,257.3485 281.53166,263.79718 281.53175,270.41121 C 281.53166,274.04893 280.20886,275.86778 277.56334,275.86778 C 275.57904,275.86778 274.25624,274.04893 273.59492,270.41121 C 271.94132,263.46647 268.30361,257.51385 262.68176,252.55332 C 261.68959,251.23053 262.02029,250.73448 263.67386,251.06516 L 263.67386,251.06516 z M 219.02915,272.89147 C 216.05281,276.52918 212.91115,278.34804 209.60414,278.34805 C 207.28923,278.34804 206.13177,277.19059 206.13178,274.87568 C 206.13177,273.22216 207.28923,271.73401 209.60414,270.41121 C 216.54886,266.44279 220.84797,260.32482 222.50151,252.05727 C 223.82428,250.73448 224.48569,250.89983 224.48572,252.55332 C 224.48569,261.15157 222.66684,267.93095 219.02915,272.89147 L 219.02915,272.89147 z"
           style="font-size:300px;font-style:normal;font-variant:normal;font-weight:normal;font-stretch:normal;text-align:start;line-height:125%;writing-mode:lr-tb;text-anchor:start;fill:#000000;fill-opacity:1;stroke:none;stroke-width:1px;stroke-linecap:butt;stroke-linejoin:miter;stroke-opacity:1;font-family:MS Mincho;-inkscape-font-specification:MS Mincho" />
        <path
           id="text3210"
           d="M 409.06559,252.72162 C 403.11287,244.78481 398.15235,232.71421 394.18401,216.5098 L 380.79061,216.5098 L 380.79061,261.65057 L 409.06559,252.72162 L 409.06559,252.72162 z M 407.08138,241.31242 C 414.02602,252.22559 424.27776,260.49312 437.83664,266.11505 C 434.19879,267.43784 431.22249,269.42205 428.90769,272.06767 C 422.62425,268.09925 416.50628,262.31197 410.55375,254.70583 L 369.38139,271.57162 C 369.05064,277.19354 367.56248,278.18564 364.91693,274.54793 L 358.96429,267.6032 L 374.34192,263.13873 L 374.34192,167.40061 L 381.78271,171.86508 L 414.52218,171.86508 L 417.49849,167.89666 L 424.44322,172.85719 C 426.42732,174.51079 425.76591,175.66824 422.45901,176.32955 L 422.45901,217.99795 C 418.15979,221.96642 416.01022,222.13177 416.01033,218.49401 L 416.01033,216.5098 L 398.15244,216.5098 C 399.14446,222.13177 401.79007,229.7379 406.08928,239.32821 C 413.36461,232.38351 420.97074,224.61203 428.90769,216.01374 L 434.86032,221.96637 C 436.51371,223.95062 435.02555,224.61203 430.39585,223.95058 C 422.4589,230.23395 414.68743,236.02123 407.08138,241.31242 L 407.08138,241.31242 z M 350.03535,244.78479 C 353.34233,244.78481 355.49188,243.462 356.48403,240.81636 C 359.791,230.56465 355.82259,218.49405 344.57878,204.60453 L 354.49982,176.32955 L 334.16167,176.32955 L 334.16167,273.55583 C 329.86254,277.52424 327.71298,277.68959 327.71299,274.05188 L 327.71299,169.38482 L 335.15378,173.35324 L 353.50771,173.35324 L 357.47613,169.38482 L 364.42087,174.34535 C 367.06643,175.66824 365.74362,176.99105 360.45246,178.31376 L 347.05904,204.60453 C 357.97215,215.18704 363.42872,224.77738 363.42877,233.37558 C 363.75942,240.98174 362.10591,246.43831 358.46824,249.74531 C 356.15329,251.72954 353.83838,252.72164 351.52351,252.72162 C 349.20856,252.72164 348.05111,251.89489 348.05114,250.24137 C 348.05111,248.91857 346.56295,247.76112 343.58667,246.769 L 339.12219,245.77689 C 338.13006,245.11551 338.13006,244.61946 339.12219,244.28874 L 350.03535,244.78479 L 350.03535,244.78479 z M 380.79061,213.53348 L 416.01033,213.53348 L 416.01033,194.68349 L 380.79061,194.68349 L 380.79061,213.53348 z M 380.79061,191.70718 L 416.01033,191.70718 L 416.01033,174.8414 L 380.79061,174.8414 L 380.79061,191.70718 z"
           style="font-size:300px;font-style:normal;font-variant:normal;font-weight:normal;font-stretch:normal;text-align:end;line-height:125%;writing-mode:lr-tb;text-anchor:end;fill:#000000;fill-opacity:1;stroke:none;stroke-width:1px;stroke-linecap:butt;stroke-linejoin:miter;stroke-opacity:1;font-family:MS Mincho;-inkscape-font-specification:MS Mincho" />
      </g>
      <path
         style="font-size:27.36326981px;font-style:normal;font-weight:normal;fill:#000000;fill-opacity:1;stroke:none;stroke-width:1px;stroke-linecap:butt;stroke-linejoin:miter;stroke-opacity:1;font-family:Bitstream Vera Sans"
         d="M 213.76691,294.48162 C 213.98068,294.83793 214.58637,295.01607 215.584,295.01606 C 216.97353,295.01607 221.0798,294.60634 227.90281,293.78685 C 229.18545,293.60872 230.15634,293.40385 230.8155,293.17224 C 231.04707,293.04756 231.20741,292.98521 231.2965,292.98519 C 231.47462,292.98521 231.78638,293.2168 232.23177,293.67996 C 232.73055,294.1966 232.97996,294.53508 232.97998,294.6954 C 232.97996,294.8023 232.89979,294.927 232.73948,295.0695 C 232.56132,295.24766 232.32082,295.60396 232.01799,296.13838 C 230.36121,299.18469 228.87369,301.5095 227.55543,303.11281 C 226.23713,304.82302 224.8654,306.28382 223.44025,307.49521 C 220.99963,309.72204 218.5234,311.54803 216.01155,312.9732 L 215.77105,312.75943 C 218.65701,310.69293 221.23122,308.35922 223.49369,305.75828 C 226.13024,302.83669 228.25018,299.76367 229.85351,296.53921 C 230.29886,295.70194 230.52154,295.19422 230.52156,295.01606 C 230.52154,294.73104 230.38793,294.58852 230.12073,294.58851 C 229.72879,294.58852 229.0073,294.6865 227.95626,294.88245 C 225.88974,295.11405 222.60295,295.60396 218.09586,296.35216 C 216.86664,296.60157 216.06499,296.72628 215.69088,296.72626 C 214.97829,296.72628 214.45276,296.53032 214.11429,296.13838 C 213.86488,295.79992 213.63329,295.28329 213.41952,294.58851 L 213.76691,294.48162 z M 242.94727,300.68111 C 243.10759,300.96615 243.56187,301.10867 244.31009,301.10866 C 245.23644,301.10867 247.73939,300.75238 251.81895,300.03978 L 251.81895,298.43647 C 251.81894,296.81535 251.35576,295.7821 250.42941,295.33672 L 250.5363,295.01606 C 252.24649,295.01607 253.10159,295.408 253.10161,296.19182 C 253.10159,296.45906 253.07487,296.85989 253.02144,297.39431 C 253.00361,297.78625 252.9947,298.60572 252.99472,299.85273 C 255.00775,299.47863 256.57544,299.29158 257.69778,299.29157 C 258.32127,299.29158 258.80226,299.38956 259.14076,299.58551 C 259.47922,299.74585 259.63955,299.93291 259.62176,300.14667 C 259.62174,300.46735 259.35452,300.62768 258.8201,300.62767 C 257.16332,300.62768 255.22153,300.74347 252.99472,300.97505 L 252.99472,301.00177 C 252.9947,307.25471 253.01252,310.62167 253.04816,311.10267 C 253.08377,311.56585 253.10159,312.01121 253.10161,312.43877 C 253.10159,312.83069 252.96798,313.23151 252.70078,313.64125 C 252.39791,314.05099 252.17523,314.25585 252.03273,314.25586 C 251.78331,314.25585 251.5339,314.0688 251.28451,313.6947 C 250.94602,313.16026 249.98403,312.2428 248.39854,310.94234 L 248.50543,310.83545 C 250.10873,311.54803 251.07072,311.90433 251.3914,311.90433 C 251.67642,311.90433 251.81894,311.65492 251.81895,311.15611 L 251.81895,302.01721 C 250.44721,303.95901 249.14675,305.57123 247.91755,306.85388 C 246.47455,308.29687 244.78217,309.5528 242.84038,310.62167 C 244.40806,309.32121 245.95793,307.79806 247.49,306.05222 C 248.61231,304.73394 249.80589,303.11281 251.07074,301.18883 C 250.37595,301.27791 249.65446,301.36698 248.90626,301.45605 C 246.2875,302.07957 244.75544,302.39132 244.31009,302.39131 C 243.65094,302.39132 243.08978,301.82126 242.6266,300.68111 L 242.94727,300.68111 z M 266.78324,301.32244 C 267.1039,301.75 267.67397,301.96377 268.49344,301.96376 C 269.56232,301.96377 270.74699,301.88361 272.04746,301.72327 C 273.84673,301.45606 277.35621,301.12649 282.57591,300.73455 C 284.0545,300.62768 285.31043,300.57423 286.3437,300.57422 C 287.44819,300.57423 288.20531,300.69893 288.61507,300.94833 C 289.09604,301.19774 289.33654,301.46496 289.33656,301.74999 C 289.33654,302.03503 288.98024,302.17755 288.26768,302.17754 C 287.91137,302.17755 287.54617,302.15973 287.17208,302.1241 C 286.67325,302.08847 285.86269,302.07066 284.74039,302.07065 C 280.03731,302.10629 276.05574,302.40023 272.79568,302.95248 C 270.49758,303.36222 269.09914,303.56709 268.60033,303.56708 C 267.92337,303.56709 267.44238,303.38894 267.15735,303.03264 C 266.83668,302.67636 266.60509,302.21318 266.46258,301.6431 L 266.78324,301.32244 z M 311.88988,291.06121 C 313.38629,291.6313 314.13451,292.23699 314.13453,292.8783 C 314.13451,293.0921 314.03652,293.35932 313.84059,293.67996 C 312.20162,296.81535 310.53595,299.52317 308.84358,301.80343 C 309.84118,302.55165 310.68738,303.35331 311.38217,304.20841 C 312.14818,305.0457 312.53119,305.75828 312.53121,306.34616 C 312.53119,306.96968 312.23725,307.28143 311.64939,307.28143 C 311.34652,307.28143 311.07039,307.04094 310.82101,306.55994 C 309.94807,305.24166 308.98608,304.05699 307.93504,303.00592 C 307.38277,303.68288 306.84833,304.3153 306.33172,304.90318 C 303.21415,308.37703 299.865,311.17393 296.28427,313.29387 L 296.17738,312.9732 C 300.09659,309.98035 303.49918,306.55994 306.38516,302.71198 C 306.54548,302.4804 306.70581,302.24881 306.86616,302.01721 C 306.79489,301.96377 306.72363,301.91033 306.65238,301.85688 C 304.92435,300.39609 303.07163,299.18469 301.09422,298.22269 L 301.28127,297.90203 C 303.79312,298.81059 305.91306,299.83493 307.6411,300.97505 C 309.29784,298.55227 310.69629,296.13839 311.83644,293.73341 C 312.08582,293.19898 312.21053,292.77143 312.21055,292.45075 C 312.21053,291.95196 311.98784,291.59567 311.5425,291.38187 L 311.88988,291.06121 z M 321.50978,301.32244 C 321.83044,301.75 322.40051,301.96377 323.21998,301.96376 C 324.28886,301.96377 325.47353,301.88361 326.774,301.72327 C 328.57327,301.45606 332.08275,301.12649 337.30245,300.73455 C 338.78104,300.62768 340.03697,300.57423 341.07024,300.57422 C 342.17473,300.57423 342.93185,300.69893 343.34161,300.94833 C 343.82258,301.19774 344.06308,301.46496 344.0631,301.74999 C 344.06308,302.03503 343.70678,302.17755 342.99422,302.17754 C 342.63791,302.17755 342.27271,302.15973 341.89862,302.1241 C 341.39979,302.08847 340.58923,302.07066 339.46693,302.07065 C 334.76385,302.10629 330.78228,302.40023 327.52222,302.95248 C 325.22412,303.36222 323.82568,303.56709 323.32687,303.56708 C 322.64991,303.56709 322.16892,303.38894 321.88389,303.03264 C 321.56322,302.67636 321.33163,302.21318 321.18912,301.6431 L 321.50978,301.32244 z M 351.33146,309.65968 C 351.70557,310.08723 352.12421,310.30101 352.5874,310.30101 C 353.19309,310.30101 354.84985,309.50826 357.55768,307.92276 C 360.26549,306.31944 362.60811,304.72504 364.58555,303.13953 C 367.18646,300.98397 369.50236,298.77496 371.53325,296.51249 L 371.85392,296.61938 C 369.46673,299.63006 367.22209,302.04394 365.11999,303.86102 C 363.03566,305.78501 360.47926,307.74461 357.45079,309.73985 C 355.11706,311.39661 353.68299,312.22499 353.14856,312.22499 C 352.75663,312.22499 352.3558,311.93105 351.94607,311.34317 C 351.32255,310.45243 351.0108,309.9269 351.0108,309.76657 L 351.33146,309.65968 z M 352.69428,291.70254 C 354.60044,292.13011 356.15922,292.82488 357.37062,293.78685 C 358.54638,294.65978 359.13426,295.46144 359.13427,296.19182 C 359.13426,296.42343 359.07191,296.6283 358.94722,296.80643 C 358.8225,296.94896 358.66217,297.02022 358.46622,297.0202 C 358.05648,297.02022 357.67346,296.72628 357.31718,296.13838 C 356.76492,295.14078 356.12359,294.36584 355.3932,293.81357 C 354.66279,293.11882 353.72753,292.4864 352.5874,291.91631 L 352.69428,291.70254 z M 350.04881,297.58137 C 351.93716,298.02674 353.48703,298.71261 354.69843,299.63895 C 355.87419,300.5297 356.46207,301.34026 356.46208,302.07065 C 356.46207,302.30225 356.39972,302.50712 356.27502,302.68526 C 356.1325,302.8456 355.98107,302.92576 355.82075,302.92575 C 355.39319,302.92576 355.01018,302.62291 354.67171,302.01721 C 354.08382,301.0196 353.42468,300.24466 352.69428,299.6924 C 351.98169,298.99764 351.06424,298.36522 349.94192,297.79514 L 350.04881,297.58137 z M 381.79449,297.0202 C 381.99044,297.53684 382.48925,297.79515 383.29092,297.79514 C 385.25052,297.79515 387.68221,297.61701 390.58601,297.2607 C 391.47672,297.17164 392.12696,297.02022 392.53671,296.80643 C 392.76828,296.68174 392.96424,296.61939 393.1246,296.61938 C 393.28491,296.61939 393.57885,296.81535 394.00642,297.20726 C 394.41614,297.54575 394.621,297.81297 394.62102,298.00892 C 394.621,298.098 394.53193,298.27615 394.3538,298.54336 C 394.08656,299.04218 393.83716,300.0487 393.60559,301.56293 L 392.45655,309.44591 C 392.5456,309.48154 392.63467,309.53498 392.72377,309.60624 C 392.99097,309.8022 393.12458,310.03379 393.1246,310.30101 C 393.12458,310.56823 392.93752,310.70184 392.56343,310.70184 C 392.34964,310.70184 392.10914,310.69293 391.84194,310.67512 C 391.55689,310.63949 390.91556,310.62167 389.91796,310.62167 C 387.58423,310.62167 385.70479,310.74638 384.27963,310.99578 C 383.58485,311.10267 383.00588,311.15611 382.54271,311.15611 C 381.58071,311.15611 380.90375,310.6573 380.51184,309.65968 L 380.8325,309.5528 C 380.99283,309.83783 381.56289,309.98035 382.54271,309.98035 C 383.36217,309.98035 384.35979,309.90909 385.53556,309.76657 C 386.80039,309.62406 388.35917,309.5528 390.2119,309.5528 C 390.63944,309.5528 390.96901,309.51717 391.20062,309.44591 C 391.53908,307.11219 391.80629,305.22385 392.00227,303.78086 C 389.7398,303.83431 387.51297,304.11043 385.32179,304.60924 C 384.52012,304.76957 383.90551,304.84974 383.47797,304.84973 C 382.65849,304.84974 382.02607,304.35093 381.58072,303.3533 L 381.90138,303.13953 C 382.11515,303.35331 382.64068,303.4602 383.47797,303.46019 C 384.24399,303.4602 384.92095,303.44239 385.50884,303.40675 C 387.87817,303.05046 390.08718,302.86341 392.13588,302.84559 C 392.38527,301.04632 392.50997,300.13777 392.50999,300.11995 C 392.61686,299.56771 392.6703,299.04218 392.67032,298.54336 C 392.6703,298.25833 392.53669,298.11582 392.26949,298.1158 C 391.12934,298.11582 389.77543,298.2138 388.20776,298.40975 C 386.28377,298.65916 385.03674,298.85512 384.46669,298.99763 C 383.96787,299.12234 383.57594,299.18469 383.29092,299.18468 C 382.45362,299.18469 381.84793,298.50774 381.47383,297.15381 L 381.79449,297.0202 z M 405.0693,292.55764 C 407.0289,293.28806 408.57877,294.08081 409.71892,294.93589 C 411.10845,295.93353 411.80322,296.81535 411.80323,297.58137 C 411.80322,297.95548 411.71415,298.24052 411.53601,298.43647 C 411.4113,298.579 411.25987,298.65025 411.08174,298.65024 C 410.60073,298.65025 410.21772,298.35631 409.93269,297.76842 C 409.52295,296.94896 408.94397,296.1473 408.19577,295.36344 C 407.37629,294.59743 406.27178,293.76905 404.88225,292.8783 L 405.0693,292.55764 z M 426.2598,294.80228 L 426.58046,295.12295 C 424.85242,297.52793 422.7592,299.90618 420.30081,302.25771 C 417.29012,305.05461 413.46889,307.99402 408.83709,311.07595 C 408.33828,311.41442 407.94636,311.58366 407.66133,311.58366 C 407.21596,311.58366 406.7795,311.24518 406.35195,310.56823 L 405.52357,309.23213 L 405.84424,308.91147 C 406.32523,309.41028 406.85076,309.65968 407.42083,309.65968 C 407.72367,309.65968 408.2492,309.46372 408.99743,309.0718 C 413.14822,306.45305 416.66661,303.95901 419.55259,301.58966 C 422.20695,299.34502 424.44269,297.08257 426.2598,294.80228 L 426.2598,294.80228 z"
         id="text3235" />
    </g>
  </g>
</svg>
